<svg width="41" height="41" viewBox="0 0 41 41" fill="none" xmlns="http://www.w3.org/2000/svg">
<path d="M31.4714 18.7917C29.3113 28.0167 25.556 33.4833 20.9271 34.1667C14.1098 34.1667 13.2396 26.9062 8.96875 18.3646C8.96875 8.92971 14.1098 5.97916 20.9271 5.97916C27.7444 5.97916 32.3972 9.56666 31.4714 18.7917Z" fill="#6883BA"/>
<mask id="mask0_36_1008" style="mask-type:alpha" maskUnits="userSpaceOnUse" x="0" y="0" width="41" height="41">
<rect width="41" height="41" fill="#D9D9D9"/>
</mask>
<g mask="url(#mask0_36_1008)">
<path d="M20.4999 33.0562C23.9735 29.8673 26.5503 26.97 28.2301 24.3642C29.91 21.7596 30.7499 19.4465 30.7499 17.425C30.7499 14.3215 29.7602 11.7801 27.7808 9.80068C25.8026 7.82243 23.3756 6.8333 20.4999 6.8333C17.6242 6.8333 15.1967 7.82243 13.2173 9.80068C11.239 11.7801 10.2499 14.3215 10.2499 17.425C10.2499 19.4465 11.0898 21.7596 12.7697 24.3642C14.4496 26.97 17.0263 29.8673 20.4999 33.0562ZM20.4999 36.7292C15.9159 32.8285 13.7941 30.6794 11.5312 27.3333C9.26706 23.9884 7.5 20.2722 7.5 17.425C7.5 13.1541 8.78303 10.3274 11.5312 7.79339C14.2782 5.25936 16.8839 4.69791 20.4999 4.69791C24.1159 4.69791 26.2946 5.25936 29.0416 7.79339C31.7897 10.3274 33.5 13.1541 33.5 17.425C33.5 20.2722 31.758 23.9884 29.4951 27.3333C27.2309 30.6794 25.0839 32.8285 20.4999 36.7292Z" fill="black"/>
</g>
<circle cx="20.2114" cy="17.324" r="4" fill="black" stroke="black" stroke-width="7.01409"/>
</svg>
