<svg width="76" height="76" viewBox="0 0 76 76" fill="none" xmlns="http://www.w3.org/2000/svg">
<circle cx="38.5938" cy="37.4062" r="27.9062" fill="#020202"/>
<mask id="mask0_35_924" style="mask-type:alpha" maskUnits="userSpaceOnUse" x="0" y="0" width="76" height="76">
<rect width="76" height="76" fill="#D9D9D9"/>
</mask>
<g mask="url(#mask0_35_924)">
<path d="M18.5252 54.15C21.2168 52.0917 24.2252 50.4682 27.5502 49.2797C30.8752 48.0932 34.3585 47.5 38.0002 47.5C41.6418 47.5 45.1252 48.0932 48.4502 49.2797C51.7752 50.4682 54.7835 52.0917 57.4752 54.15C59.3224 51.9861 60.7611 49.5319 61.7913 46.7875C62.8194 44.0431 63.3335 41.1139 63.3335 38C63.3335 30.9806 60.8667 25.0029 55.933 20.0672C50.9972 15.1335 45.0196 12.6667 38.0002 12.6667C30.9807 12.6667 25.0042 15.1335 20.0705 20.0672C15.1347 25.0029 12.6668 30.9806 12.6668 38C12.6668 41.1139 13.1819 44.0431 14.2122 46.7875C15.2403 49.5319 16.6779 51.9861 18.5252 54.15ZM38.0002 41.1667C34.8863 41.1667 32.2601 40.0984 30.1215 37.962C27.9851 35.8234 26.9168 33.1972 26.9168 30.0833C26.9168 26.9694 27.9851 24.3432 30.1215 22.2047C32.2601 20.0682 34.8863 19 38.0002 19C41.1141 19 43.7403 20.0682 45.8788 22.2047C48.0153 24.3432 49.0835 26.9694 49.0835 30.0833C49.0835 33.1972 48.0153 35.8234 45.8788 37.962C43.7403 40.0984 41.1141 41.1667 38.0002 41.1667ZM38.0002 69.6667C33.6196 69.6667 29.5029 68.8349 25.6502 67.1713C21.7974 65.5099 18.446 63.2542 15.596 60.4042C12.746 57.5542 10.4903 54.2028 8.82883 50.35C7.16527 46.4972 6.3335 42.3806 6.3335 38C6.3335 33.6194 7.16527 29.5028 8.82883 25.65C10.4903 21.7972 12.746 18.4458 15.596 15.5958C18.446 12.7458 21.7974 10.4891 25.6502 8.8255C29.5029 7.16405 33.6196 6.33333 38.0002 6.33333C42.3807 6.33333 46.4974 7.16405 50.3502 8.8255C54.2029 10.4891 57.5543 12.7458 60.4043 15.5958C63.2543 18.4458 65.5101 21.7972 67.1715 25.65C68.8351 29.5028 69.6668 33.6194 69.6668 38C69.6668 42.3806 68.8351 46.4972 67.1715 50.35C65.5101 54.2028 63.2543 57.5542 60.4043 60.4042C57.5543 63.2542 54.2029 65.5099 50.3502 67.1713C46.4974 68.8349 42.3807 69.6667 38.0002 69.6667ZM39.7812 64.7188C35.0312 67.0938 32.5507 59.0045 35.0312 58.1875C37.5118 57.3684 35.9416 62.6868 38 61.1562C35.9416 59.6257 39.7812 51.6562 43.3437 55.2188C40.8632 54.4017 41.0206 63.3325 38.2234 63.3325C35.4262 63.3325 35.1368 51.433 32.6562 52.25C37.4062 52.25 39.4646 54.8757 37.4062 56.4062C39.4646 57.9368 44.4257 59.5851 46.9062 60.4042C49.3868 61.2212 36.984 64.7188 39.7812 64.7188ZM38.0002 34.8333C39.3724 34.8333 40.5071 34.3847 41.4043 33.4875C42.3016 32.5903 37.4062 33.4347 37.4062 32.0625C37.4062 30.6903 37.5641 32.3138 36.6669 31.4166C35.7697 30.5194 36.2187 24.9375 38.5937 26.125C37.2215 26.125 42.3016 32.5903 41.4043 33.4875C40.5071 34.3847 42.75 34.2528 42.75 35.625C42.75 36.9972 40.0715 35.9153 40.9687 36.8125C41.8659 37.7097 36.6279 34.8333 38.0002 34.8333Z" fill="white"/>
</g>
</svg>
